# Blender 4.0.2
# www.blender.org
mtllib kirikanan.mtl
o Cube
v 1.000000 0.121713 -0.122087
v 1.000000 -0.098592 -0.122087
v 1.000000 0.121713 0.122087
v 1.000000 -0.098592 0.122087
v -1.000000 0.121713 -0.122087
v -1.000000 -0.098592 -0.122087
v -1.000000 0.121713 0.122087
v -1.000000 -0.098592 0.122087
v -1.025614 -0.291414 -0.335800
v -1.025614 -0.291414 0.335800
v 1.176977 0.121713 -0.122087
v 1.176977 -0.098592 -0.122087
v -1.025614 0.314536 0.335800
v 1.176977 0.121713 0.122087
v 1.176977 -0.098592 0.122087
v -1.025614 0.314536 -0.335800
v -1.172836 -0.291414 -0.335800
v -1.172836 -0.291414 0.335800
v -1.172836 0.314536 0.335800
v -1.172836 0.314536 -0.335800
v -0.375399 -0.029790 0.122087
v -0.375399 0.052912 0.122087
v 0.375399 0.052912 0.122087
v 0.375399 -0.029790 0.122087
v 0.000000 0.011561 0.840536
vn -0.0000 1.0000 -0.0000
vn -0.0000 -0.0000 1.0000
vn -0.0000 -0.0000 -1.0000
vn -0.0000 -1.0000 -0.0000
vn 1.0000 -0.0000 -0.0000
vn 0.9913 -0.1317 -0.0000
vn 0.9913 0.1317 -0.0000
vn 0.9929 -0.0000 -0.1190
vn 0.9929 -0.0000 0.1190
vn -1.0000 -0.0000 -0.0000
vn -0.0000 -0.9983 0.0575
vn 0.8863 -0.0000 0.4631
vn -0.0000 0.9983 0.0575
vn -0.8863 -0.0000 0.4631
vt 0.875000 0.500000
vt 0.625000 0.750000
vt 0.625000 0.500000
vt 0.375000 0.750000
vt 0.125000 0.750000
vt 0.375000 0.500000
vt 0.125000 0.500000
vt 0.625000 0.250000
vt 0.375000 0.250000
vt 0.875000 0.750000
vt 0.625000 1.000000
vt 0.375000 1.000000
vt 0.625000 0.000000
vt 0.375000 0.000000
s 0
usemtl Material.001
f 5/1/1 3/2/1 1/3/1
f 4/4/2 21/5/2 8/5/2
f 1/3/3 12/6/3 2/6/3
f 2/6/4 8/5/4 6/7/4
f 4/4/2 14/2/2 3/2/2
f 5/8/3 2/6/3 6/9/3
f 10/5/4 17/7/4 9/7/4
f 11/3/5 15/4/5 12/6/5
f 2/6/4 15/4/4 4/4/4
f 8/5/6 9/7/6 6/7/6
f 5/1/7 13/10/7 7/10/7
f 3/2/1 11/3/1 1/3/1
f 5/8/8 9/9/8 16/8/8
f 7/11/9 10/12/9 8/12/9
f 19/13/10 17/9/10 18/14/10
f 16/1/1 19/10/1 13/10/1
f 9/9/3 20/8/3 16/8/3
f 13/11/2 18/12/2 10/12/2
f 21/5/11 24/4/11 25/5/11
f 7/10/2 23/2/2 3/2/2
f 3/2/2 24/4/2 4/4/2
f 8/12/2 22/11/2 7/11/2
f 24/4/12 23/2/12 25/4/12
f 23/2/13 22/10/13 25/2/13
f 22/11/14 21/12/14 25/11/14
f 5/1/1 7/10/1 3/2/1
f 4/4/2 24/4/2 21/5/2
f 1/3/3 11/3/3 12/6/3
f 2/6/4 4/4/4 8/5/4
f 4/4/2 15/4/2 14/2/2
f 5/8/3 1/3/3 2/6/3
f 10/5/4 18/5/4 17/7/4
f 11/3/5 14/2/5 15/4/5
f 2/6/4 12/6/4 15/4/4
f 8/5/6 10/5/6 9/7/6
f 5/1/7 16/1/7 13/10/7
f 3/2/1 14/2/1 11/3/1
f 5/8/8 6/9/8 9/9/8
f 7/11/9 13/11/9 10/12/9
f 19/13/10 20/8/10 17/9/10
f 16/1/1 20/1/1 19/10/1
f 9/9/3 17/9/3 20/8/3
f 13/11/2 19/11/2 18/12/2
f 7/10/2 22/10/2 23/2/2
f 3/2/2 23/2/2 24/4/2
f 8/12/2 21/12/2 22/11/2
